<?xml version="1.0" standalone="no"?>
<!DOCTYPE svg PUBLIC "-//W3C//DTD SVG 1.1//EN" "http://www.w3.org/Graphics/SVG/1.1/DTD/svg11.dtd" >
<svg>
<metadata>
Created by FontForge 20120731 at Sun Nov  9 04:09:52 2014
 By Orthosie Webhosting
FontBit
</metadata>
<defs>
<font id="JokerBold" horiz-adv-x="1024" >
  <font-face 
    font-family="JokerBold"
    font-weight="700"
    font-stretch="normal"
    units-per-em="2048"
    panose-1="0 0 8 0 0 0 0 0 0 0"
    ascent="1505"
    descent="-543"
    x-height="916"
    cap-height="1380"
    bbox="-250 -510 2067 1505"
    underline-thickness="150"
    underline-position="-142"
    unicode-range="U+0020-2421"
  />
<missing-glyph 
d="M128 0v1505h768v-1505h-768zM256 128h512v1249h-512v-1249z" />
    <glyph glyph-name=".notdef" 
d="M128 0v1505h768v-1505h-768zM256 128h512v1249h-512v-1249z" />
    <glyph glyph-name=".null" horiz-adv-x="0" 
 />
    <glyph glyph-name="nonmarkingreturn" horiz-adv-x="410" 
 />
    <glyph glyph-name="space" unicode=" " horiz-adv-x="451" 
 />
    <glyph glyph-name="exclam" unicode="!" horiz-adv-x="490" 
d="M332 928l-45 -574q-6 -73 -58 -73h-47q-49 0 -55 75l-45 572v24q0 123 123 123q127 0 127 -123v-24zM346 70q0 -53 -36.5 -89t-92.5 -36q-55 0 -92 36t-37 89t37 90t92 37t92 -37t37 -90z" />
    <glyph glyph-name="quotedbl" unicode="&#x22;" horiz-adv-x="660" 
d="M616 1001q0 -170 -120 -309q-77 -88 -160 -104l-4 -2q-13 0 -13 18q0 6 3 10q81 184 81 365q0 55 -24 106q-6 13 -6 19q0 11 14 18q51 25 107 25q122 0 122 -146zM315 1001q0 -170 -120 -309q-77 -88 -160 -104l-4 -2q-13 0 -13 18q0 6 2 10q82 184 82 365q0 29 -14 70
t-14 55q0 12 12 18q50 25 107 25q122 0 122 -146z" />
    <glyph glyph-name="numbersign" unicode="#" horiz-adv-x="800" 
d="M760 766l-17 -88q-4 -23 -26 -23h-107l-24 -151h108q19 0 19 -19v-4l-17 -88q-4 -22 -26 -22h-107l-22 -148q-4 -22 -27 -22h-88q-18 0 -18 18q-1 4 0 4l22 148h-129l-22 -148q-4 -22 -27 -22h-88q-21 0 -21 18q1 1 2 4l23 148h-109q-18 0 -18 14v8l16 88q5 23 27 23h106
l23 151h-107q-20 0 -20 15q1 2 2 8l16 88q5 22 25 22h109l22 148q4 22 27 22h88q18 0 18 -18v-4l-22 -148h129l22 148q4 22 27 22h88q18 0 18 -18v-4l-22 -148h106q21 0 21 -18v-4zM477 655h-131l-22 -151h129z" />
    <glyph glyph-name="dollar" unicode="$" horiz-adv-x="829" 
d="M727 244q0 -109 -85 -179q-80 -65 -189 -65v-82q0 -33 -27 -33h-68q-36 0 -36 33v82q-124 0 -207 51q-25 15 -25 35q0 13 4 27l37 118q4 13 21 13q14 0 20 -6q46 -45 67 -59q40 -29 83 -36v312q-133 59 -189 132q-51 69 -51 171q0 93 64 158q69 69 182 69v90q0 33 28 33
h72q25 0 25 -33v-92q84 0 174 -41q32 -15 32 -39q0 -8 -4 -18l-37 -94q-11 -29 -28 -29q-11 0 -17 4q-27 21 -55 42q-31 21 -65 32v-273q274 -114 274 -323zM322 621v227q-29 0 -59 -36.5t-30 -74.5q0 -73 89 -116zM541 260q0 96 -88 139v-256q33 0 60.5 35.5t27.5 81.5z
" />
    <glyph glyph-name="percent" unicode="%" horiz-adv-x="1097" 
d="M1016 244q0 -109 -47 -181q-52 -81 -146 -81q-101 0 -157 79q-50 70 -50 183q0 272 203 272q197 0 197 -272zM879 940q0 -7 -7 -18l-489 -895q-15 -27 -37 -27h-121q-14 0 -14 18q0 3 6 15l488 901q13 24 34 24h105q35 0 35 -18zM481 711q0 -109 -46 -181
q-52 -81 -146 -81q-102 0 -157 78q-50 71 -50 184q0 272 203 272q196 0 196 -272zM854 244q0 164 -39 164t-39 -164q0 -158 37 -158q41 0 41 158zM319 711q0 166 -38 166q-39 0 -39 -166q0 -156 37 -156q40 0 40 156z" />
    <glyph glyph-name="ampersand" unicode="&#x26;" horiz-adv-x="1356" 
d="M1212 315q0 -169 -75.5 -242t-257.5 -73h-363q-78 0 -78 86v430q0 12 13 12h149q14 0 14 -12v-323q0 -29 27 -29h231q112 0 144 60q20 39 20 171v404q0 12 13 12h145q18 0 18 -12v-484zM918 309q0 -12 -19 -12h-145q-13 0 -13 12v129q0 116 -29 161q-39 60 -153 60h-209
q-31 0 -31 -28v-617q0 -14 -14 -14h-149q-13 0 -13 14v723q0 86 78 86h365q332 0 332 -315v-199z" />
    <glyph glyph-name="quotesingle" unicode="'" horiz-adv-x="393" 
d="M332 993q0 -154 -121 -282q-75 -80 -156 -95h-2q-14 0 -14 15q0 6 2 10q80 166 80 332q0 48 -25 96q-4 8 -4 14q0 12 14 19q51 22 105 22q121 0 121 -131z" />
    <glyph glyph-name="parenleft" unicode="(" horiz-adv-x="574" 
d="M492 -160q0 -3 -17 -16l-63 -49q-8 -6 -19 -6q-13 0 -33 20q-125 134 -194 327q-64 178 -64 361t64 362q69 193 194 326q18 19 33 19q13 0 19 -4l63 -50q17 -12 17 -18t-11 -22q-84 -137 -134 -327q-42 -162 -42 -286t42 -287q50 -191 134 -327q11 -17 11 -23z" />
    <glyph glyph-name="parenright" unicode=")" horiz-adv-x="554" 
d="M451 477q0 -183 -63 -361q-68 -194 -193 -327q-20 -20 -35 -20q-8 0 -17 6l-65 49q-17 12 -17 16q0 6 11 23q84 137 135 327q43 164 43 287t-43 286q-50 189 -135 327q-11 16 -11 22t17 18l65 50q6 4 17 4q17 0 35 -19q125 -133 193 -326q63 -178 63 -362z" />
    <glyph glyph-name="asterisk" unicode="*" horiz-adv-x="711" 
d="M649 897q0 -30 -39 -41l-147 -43l98 -119q19 -22 19 -43q0 -20 -19 -33q-63 -43 -76 -43q-19 0 -39 29l-90 133l-92 -131q-19 -26 -41 -26q-13 0 -71 43q-17 12 -17 32t12 35l101 121l-158 51q-29 10 -29 35q0 10 31 80q12 27 31 27q8 0 27 -9l145 -63l-8 160q0 41 47 41
h59q39 0 39 -39q0 -17 -10 -162l145 57q16 6 25 6q29 0 39 -30q18 -52 18 -68z" />
    <glyph glyph-name="plus" unicode="+" horiz-adv-x="696" 
d="M635 430q0 -22 -23 -22h-186v-187q0 -22 -23 -22h-108q-23 0 -23 22v187h-188q-23 0 -23 22v109q0 22 23 22h188v189q0 22 23 22h108q23 0 23 -22v-189h186q23 0 23 -22v-109z" />
    <glyph glyph-name="comma" unicode="," horiz-adv-x="310" 
d="M248 55q0 -104 -66 -203q-69 -103 -159 -124h-3q-12 0 -12 14q1 5 2 8q60 119 60 299q0 62 -9 103q-1 2 -2 8q0 22 41 22h4q144 0 144 -127z" />
    <glyph glyph-name="hyphen" unicode="-" horiz-adv-x="696" 
d="M614 426q0 -23 -22 -23h-488q-22 0 -22 23v117q0 22 22 22h488q22 0 22 -22v-117z" />
    <glyph glyph-name="period" unicode="." horiz-adv-x="349" 
d="M289 74q0 -51 -36 -86t-89 -35t-88 35t-35 86q0 50 35 85.5t88 35.5t89 -35.5t36 -85.5z" />
    <glyph glyph-name="slash" unicode="/" horiz-adv-x="622" 
d="M602 1044q0 -3 -6 -20l-397 -1120q-10 -27 -43 -27h-103q-33 0 -33 17q0 5 7 22l395 1120q10 29 41 29h108q31 0 31 -21z" />
    <glyph glyph-name="zero" unicode="0" horiz-adv-x="840" 
d="M768 479q0 -506 -350 -506q-346 0 -346 506q0 508 350 508q346 0 346 -508zM551 479q0 363 -129 363q-131 0 -131 -363q0 -224 41 -305q27 -55 86 -55q60 0 89 55q44 82 44 305z" />
    <glyph glyph-name="one" unicode="1" horiz-adv-x="840" 
d="M770 18q0 -18 -25 -18h-604q-24 0 -24 18q0 14 4 23l35 78q12 26 34 26h183v590q-31 -55 -103 -124q-68 -65 -114 -89q-12 -6 -21 -6q-15 0 -22 16l-43 95q-9 18 -9 26q0 18 25 29q159 72 301 248q23 28 57 28h97q34 0 34 -32v-781h130q25 0 34 -24l27 -80q4 -12 4 -23z
" />
    <glyph glyph-name="two" unicode="2" horiz-adv-x="840" 
d="M737 20q0 -20 -30 -20h-615q-24 0 -24 20q0 11 2 17l28 80q9 23 35 39q144 86 250 230q115 156 115 294q0 151 -142 151q-85 0 -188 -75q-14 -11 -27 -11t-22 21l-43 100q-8 19 -8 27q0 21 28 33q147 59 307 59q320 0 320 -295q0 -164 -108 -321q-102 -147 -250 -224h315
q24 0 33 -30l24 -86q1 -1 0 -9z" />
    <glyph glyph-name="three" unicode="3" horiz-adv-x="840" 
d="M754 274q0 -130 -100 -212t-251 -82q-176 0 -307 59q-26 12 -26 33q0 12 6 26l43 103q8 20 24 20q12 0 25 -10q98 -78 188 -78q80 0 131.5 39t51.5 100q0 162 -234 162h-49q-27 0 -27 35v86q0 31 37 31h76q60 0 106 37q50 40 50 100q0 108 -142 108q-101 0 -188 -75
q-14 -13 -25 -13q-15 0 -24 23l-43 100q-6 15 -6 27q0 21 26 33q131 59 307 59q134 0 217 -56q93 -63 93 -179q0 -66 -56 -129q-58 -66 -137 -78q93 -18 159 -85q75 -77 75 -184z" />
    <glyph glyph-name="four" unicode="4" horiz-adv-x="840" 
d="M774 236q0 -31 -33 -31h-71v-164q0 -41 -33 -41h-137q-33 0 -33 41v164h-365q-36 0 -36 41v73q0 33 24 72l342 545q14 22 51 22h142q26 0 26 -22q0 -13 -10 -29l-356 -553h190v170q0 39 35 39h127q35 0 35 -37v-172h69q33 0 33 -43v-75z" />
    <glyph glyph-name="five" unicode="5" horiz-adv-x="840" 
d="M745 342q0 -156 -91 -255q-100 -107 -277 -107q-171 0 -287 59q-27 14 -27 33q0 12 7 26l43 103q8 20 24 20q13 0 25 -10q93 -84 192 -84q79 0 128.5 58t49.5 149q0 94 -48 143q-41 41 -101 41q-82 0 -113 -63q-12 -27 -30 -27q-2 1 -7 2l-112 25q-21 4 -21 20q0 -2 2 12
l64 433q6 38 43 38h471q25 0 25 -20q0 -10 -5 -20l-28 -76q-12 -31 -37 -31h-287l-29 -180q44 22 123 22q145 0 226 -87q77 -84 77 -224z" />
    <glyph glyph-name="six" unicode="6" horiz-adv-x="840" 
d="M776 330q0 -162 -92.5 -260.5t-247.5 -98.5q-358 0 -358 445q0 563 375 563q150 0 225 -37q33 -16 33 -37q0 -12 -6 -22l-50 -86q-11 -21 -24 -21q-10 0 -25 10q-73 52 -162 52q-159 0 -159 -265q62 80 186 80q149 0 230 -93q75 -87 75 -230zM573 313q0 211 -141 211
q-145 0 -145 -213q0 -106 49 -161q39 -44 96 -44t95 44q46 55 46 163z" />
    <glyph glyph-name="seven" unicode="7" horiz-adv-x="840" 
d="M766 926q0 -13 -6 -31l-297 -866q-10 -29 -37 -29h-164q-18 0 -18 25q0 12 6 28l291 756h-389q-26 0 -41 41l-27 70q-1 2 -2 8v0q23 33 43 33h588q53 0 53 -35z" />
    <glyph glyph-name="eight" unicode="8" horiz-adv-x="840" 
d="M774 262q0 -135 -96 -216t-258 -81q-154 0 -254 84t-100 213q0 180 170 262q-138 59 -138 205q0 124 98 195q89 63 224 63q136 0 223 -62q98 -69 98 -196q0 -72 -46 -132q-37 -49 -89 -73q73 -30 119 -98q49 -72 49 -164zM551 717q0 68 -42 108q-37 35 -89 35t-89 -36
q-42 -40 -42 -107q0 -69 43 -112q38 -40 88 -40t88 37q43 43 43 115zM573 268q0 77 -46 125q-45 45 -109 45q-67 0 -111.5 -46t-44.5 -124q0 -73 47 -121q44 -45 109 -45q67 0 111 46t44 120z" />
    <glyph glyph-name="nine" unicode="9" horiz-adv-x="840" 
d="M770 541q0 -566 -377 -566q-144 0 -223 39q-35 17 -35 37q0 8 8 23l47 86q11 18 27 18q11 0 23 -8q73 -51 163 -51q160 0 160 264q-62 -80 -186 -80q-149 0 -230 93q-75 87 -75 231q0 161 92.5 259.5t247.5 98.5q358 0 358 -444zM559 645q0 107 -49 161q-40 44 -96 44
q-140 0 -140 -207q0 -213 140 -213q145 0 145 215z" />
    <glyph glyph-name="colon" unicode=":" horiz-adv-x="423" 
d="M319 690q0 -59 -40.5 -100t-102.5 -41t-103.5 41t-41.5 100t41.5 100t103.5 41t102.5 -41t40.5 -100zM319 113q0 -60 -40.5 -101t-102.5 -41t-103.5 41.5t-41.5 100.5t41.5 100t103.5 41t102.5 -41t40.5 -100z" />
    <glyph glyph-name="semicolon" unicode=";" horiz-adv-x="413" 
d="M319 690q0 -59 -40.5 -100t-102.5 -41t-103.5 41t-41.5 100t41.5 100t103.5 41t102.5 -41t40.5 -100zM319 106q0 -90 -40 -178q-43 -95 -117 -147q-18 -12 -29 -12t-24 10l-56 41q-14 10 -14 22q0 7 10 21q62 85 62 200q0 66 -19 125q-1 2 -2 7q0 17 35 24l147 31h2
q45 0 45 -144z" />
    <glyph glyph-name="less" unicode="&#x3c;" horiz-adv-x="696" 
d="M629 262q0 -12 -4 -18l-60 -97q-9 -14 -16 -14q-6 0 -17 6l-426 252q-32 20 -32 39v127q0 24 32 43l426 246q8 4 15 4q12 0 18 -10l58 -90q4 -7 4 -19q0 -26 -15 -33l-403 -200l403 -205q17 -8 17 -31z" />
    <glyph glyph-name="equal" unicode="=" horiz-adv-x="696" 
d="M614 594q0 -23 -22 -23h-488q-22 0 -22 23v108q0 23 22 23h488q22 0 22 -23v-108zM614 270q0 -22 -22 -22h-488q-22 0 -22 22v109q0 22 22 22h488q22 0 22 -22v-109z" />
    <glyph glyph-name="greater" unicode="&#x3e;" horiz-adv-x="696" 
d="M625 430q0 -19 -33 -39l-426 -252q-11 -6 -16 -6q-8 0 -17 14l-59 97q-4 6 -4 18q0 23 16 31l403 205l-403 200q-14 7 -14 33q0 12 4 19l57 90q7 10 19 10q7 0 14 -4l426 -246q33 -19 33 -43v-127z" />
    <glyph glyph-name="question" unicode="?" horiz-adv-x="791" 
d="M668 807q0 -141 -152 -287q-117 -112 -135 -211q-5 -28 -31 -28h-76q-25 0 -36 30q-15 40 -15 80q0 108 115 215q98 92 98 199q0 121 -112 121q-87 0 -154 -99q-8 -12 -18 -12q-16 0 -31 23l-60 90q-6 9 -6 18q0 18 21 33q120 88 293 88q130 0 211 -64q88 -70 88 -196z
M442 70q0 -53 -36.5 -89t-92.5 -36q-55 0 -92 36t-37 89t37 90t92 37q56 0 92.5 -37t36.5 -90z" />
    <glyph glyph-name="at" unicode="@" horiz-adv-x="1886" 
d="M1844 156q-94 -288 -330 -452q-231 -162 -537 -162q-241 0 -440 111q-205 114 -318.5 320.5t-113.5 454.5q0 264 122 489q125 232 349 360.5t475 128.5q202 0 362 -79q176 -87 264 -254t88 -352q0 -169 -66 -330q-70 -173 -193 -272q-129 -104 -293 -104q-153 0 -181 121
q16 64 56 104q-246 -226 -404 -226q-85 0 -136 77q-45 67 -45 156q0 156 104 345q86 156 217 296q107 73 177 73q30 0 53 -13q140 0 202 -84l8 96l136 -24l-101 -393q-72 -280 -72 -338q0 -19 5 -29q-6 -20 -6 -33q0 -28 25 -28q17 0 45 13q20 -9 40 -9q74 0 152 121
q92 40 144 157q73 164 73 342q-33 141 -105 309q-91 134 -245 212q-150 76 -315 76q-232 -64 -392 -160q-223 -76 -264 -272q-157 -216 -157 -411q0 -35 5 -69q-8 -240 104 -408q61 -217 272 -256q140 -84 360 -112q55 -7 101 -7q231 0 395 151q211 105 256 400zM1182 773
q0 60 -32 100q-17 22 -44 22q-28 0 -66 -23q-80 8 -136 -136q-111 -13 -192 -211q-59 -145 -59 -232q19 -29 30 -95q29 24 49 24q23 0 36 -30q112 56 248 192q40 88 120 144q46 146 46 245z" />
    <glyph glyph-name="A" unicode="A" horiz-adv-x="1479" 
d="M1456 0h-535l39 32q72 32 99 88q0 44 -40 139l-82 195h-525l-92 -214q-34 -79 -34 -118q0 -74 114 -82l43 -40h-427v37q85 15 96 67q64 19 127 167l477 1116l44 -27l463 -1101q48 -114 105 -139q31 -77 128 -83v-37zM872 544l-176 528l-253 -544z" />
    <glyph glyph-name="B" unicode="B" horiz-adv-x="1366" 
d="M1254 371q0 -114 -65 -201t-174 -127q-125 -46 -341 -43l-578 8l-16 56l5 -27q86 0 122 54q9 53 23 149v876q0 126 -29 159q-39 44 -116 44l43 -7l-48 40l540 4q338 3 480 -139q91 -91 91 -223q0 -223 -245 -302q141 -30 211 -96q97 -92 97 -225zM982 1002
q0 145 -123 222q-104 65 -257 65q-100 0 -180 -22v-521q66 -2 178 30q68 -11 124 -11q162 0 219 95q39 65 39 142zM1022 354q0 188 -183 267q-97 42 -240 42q-128 0 -177 -9l-22 -494q138 -89 251 -89q151 0 252 64q119 76 119 219z" />
    <glyph glyph-name="C" unicode="C" horiz-adv-x="1366" 
d="M1336 320q-238 -351 -602 -351q-337 0 -522 250q-138 186 -138 438q0 199 86 365q90 175 256 272q159 93 348 93q148 0 290 -72q43 -22 60 -22q23 5 23 31q0 27 -25 76l121 -13l31 -461l-64 2q-84 387 -420 387q-295 0 -415 -287q-63 -151 -63 -373q0 -382 237 -526
q88 -27 214 -27q30 0 63 2q55 -18 106 -18q82 0 151 48q79 114 191 204z" />
    <glyph glyph-name="D" unicode="D" horiz-adv-x="1479" 
d="M1401 685q0 -284 -172 -473q-198 -218 -588 -212l-537 8l-16 -8l-2 37q86 0 122 55q22 33 22 148v876q0 127 -102 140q11 20 11 31q0 15 -19 15q-12 0 -32 -6v0l-24 80l523 -20q296 -11 407 -49q198 -67 306 -242q101 -163 101 -380zM1173 675q0 267 -149 413
q-164 160 -392 160q-29 3 -63 3q-68 0 -153 -11l6 -1142q43 2 218 -2q260 -6 401 160q132 154 132 419z" />
    <glyph glyph-name="E" unicode="E" horiz-adv-x="1251" 
d="M1192 304l-96 -320h-1000l-16 80l2 -43q47 0 86 83q18 -16 31 -16q34 0 33 176l-4 840q-28 119 -28 149q0 8 2 10q-35 40 -120 40l-10 9v40l1007 -12l15 -297l-70 5q-16 88 -32 128q-32 39 -208 88h-376l24 -488l286 -46q192 0 192 104q0 15 -6 30l72 32l32 -360l-88 -32
q-3 51 -17 78q-39 76 -156 76q-17 0 -29 -1l-294 -25l-4 -422q-1 -74 1 -77q37 -25 59 -37q11 -6 26 -6q24 0 62 14h184q56 8 94 8t58 -8q72 24 125 33q43 63 67 183z" />
    <glyph glyph-name="F" unicode="F" horiz-adv-x="1139" 
d="M1055 1058l-79 -2q-24 144 -120 192q-32 -16 -152 -16h-288l16 -416l234 -67q70 35 133 47q32 39 44 139h37v-459h-37q-2 133 -74 172q-33 18 -103 18l-226 -42l-21 -384q19 -52 19 -93q0 -23 -6 -43q4 -11 18 -11q19 0 54 19q64 -40 62 -75h49v-37l-583 8l40 56l9 -27
q55 51 103 51q0 64 43 152v876q0 103 -13 136q-27 67 -133 67l-9 -23l-8 64l960 -8z" />
    <glyph glyph-name="G" unicode="G" horiz-adv-x="1479" 
d="M1392 680l25 14q-52 -66 -77 -66q-14 0 -20 20q-17 -24 -17 -74q0 -36 9 -86l-104 -384q-112 -192 -416 -216q-436 32 -608 312q-110 179 -120 449q-8 211 86 343q164 400 504 400q61 0 128 -13q131 0 306 -65q57 -21 75 -21q29 0 29 25q0 14 -8 34l80 8l20 -409l-84 9
q-4 151 -88 232q-96 68 -220 68q-52 0 -108 -12q-68 26 -127 26q-161 0 -249 -194q-114 -148 -114 -388q0 -176 64 -330q114 -122 210 -186l224 -56q144 -8 224 64l79 312q0 76 -6 103q-41 17 -97 41q1 8 1 15q0 41 -33 49l32 80l448 -8z" />
    <glyph glyph-name="H" unicode="H" horiz-adv-x="1479" 
d="M1429 0h-557l-23 37l47 3q84 -3 122 46q25 32 25 154v413h-630v-413q0 -103 35 -136q6 -36 61 -36q19 0 43 4l56 -35v-45l-581 8v37l21 43q27 -8 46 -8q39 0 50 32q56 48 72 160l5 851q1 109 -13 137q-48 4 -48 20q-80 0 -85 47l-43 -55v104l576 -12v-37h-49
q-53 0 -86 -28q-22 -19 -56 -75q-4 -23 -4 -101l43 -339h576l11 339q3 96 -13 137q-62 12 -133 67h-48v37h580v-37h-48q-82 0 -141 -119q-5 -5 24 -96l-29 -864q-3 -99 13 -120q50 -28 50 -46q0 -7 -9 -13q43 -24 92 -24h48v-37z" />
    <glyph glyph-name="I" unicode="I" horiz-adv-x="682" 
d="M624 0l-584 4l3 33h48q84 0 93 67q40 44 53 136v876q0 103 -13 136q-10 26 -68 28q-27 21 -68 32l-44 12v48l584 8l-4 -61h-49q-59 -35 -87 -87q-48 -24 -59 -116l19 -868q23 -58 23 -104q0 -17 -3 -32q24 -48 107 -75l41 43z" />
    <glyph glyph-name="J" unicode="J" horiz-adv-x="797" 
d="M785 1319h-49q-80 -15 -121 -49q-24 -31 -24 -154v-663q0 -285 -143 -425q-88 -59 -204 -59q-77 0 -135 37q-49 54 -49 122q-3 19 -3 33q0 50 40 50q10 0 23 -3q70 19 103 -27q15 -21 45 -69q15 -17 24 -17q8 0 12 13q52 0 56 88l39 920q4 93 -13 136q-50 36 -134 44
l-48 23l-12 77h600z" />
    <glyph glyph-name="K" unicode="K" horiz-adv-x="1479" 
d="M1508 -8h-645v37q109 0 109 63q0 43 -72 114l-468 463v-437q0 -103 13 -136q25 -42 83 -42q13 0 28 2l56 -8l4 -56h-568l8 36l24 24q92 8 136 26q24 31 24 154v876q-12 100 -13 137q-25 10 -67 39q-23 16 -66 27h-48l2 53l572 -4l-4 -56l-44 -20q-9 2 -18 2
q-41 0 -106 -90q-16 -10 -16 -88v-415q39 37 124 155q312 246 360 336q8 44 16 72q-23 12 -64 48l-32 28l4 48l488 4l2 -73q-74 -11 -174 -59q-40 -40 -116 -124q-97 -80 -172 -168l-184 -216l440 -497q181 -204 384 -218v-37z" />
    <glyph glyph-name="L" unicode="L" horiz-adv-x="1251" 
d="M1232 280l-145 -288h-1050v37h51q86 0 123 56q21 32 21 148v875q0 127 -32 176q-50 2 -100 8l-68 8l-4 60h628l-8 -96q-68 19 -114 19q-72 0 -94 -45q-9 -18 -16 -153l-44 -853q16 -68 60 -113q28 -23 84 -31l192 16q132 -4 198 -13q181 43 222 233zM1164 132zM1144 56z
" />
    <glyph glyph-name="M" unicode="M" horiz-adv-x="1821" 
d="M1760 -12l-548 12v44l48 16q26 -9 48 -9q59 0 77 66q9 33 9 114v906l-502 -1105l-56 -16l-472 1052l-50 -837q18 -115 27 -156q37 -42 117 -42h48v-37h-454l8 52l52 -4q9 -2 18 -2q41 0 58 46q20 28 38 143l-26 885q8 96 6 131q-38 53 -166 57l-4 60l388 8l440 -1052
l532 1060l368 -20l-8 -44l-25 -1q-87 -23 -123 -52q-22 -32 -22 -146v-886q0 -125 28 -156q38 -43 98 -43h56z" />
    <glyph glyph-name="N" unicode="N" horiz-adv-x="1479" 
d="M1440 1292h-44q-78 0 -128 -29q-22 -32 -22 -146v-1143h-36l-894 1092v-835q0 -126 27 -156q37 -42 93 -39l20 4l-12 -32l-408 -12l40 48l7 -11q87 0 123 52q22 32 22 146v943q-51 60 -79 82q-38 30 -100 50q-28 9 -45 18l8 36l320 12l826 -1037v782q-18 111 -28 156
q-42 -1 -114 23h-56l6 56h472z" />
    <glyph glyph-name="O" unicode="O" horiz-adv-x="1479" 
d="M1400 686q0 -310 -177 -509q-184 -208 -490 -208q-308 0 -489 206q-172 196 -172 508q0 323 220 527q191 177 457 177q297 0 478 -205q173 -195 173 -496zM1171 650q0 178 -18 264q-12 57 -55 151q-100 218 -325 218q-26 0 -53 -3q-28 4 -54 4q-136 0 -228 -113
q-137 -168 -137 -492q0 -231 11 -232q5 0 12 45q207 -420 353 -420q14 0 27 4q22 -4 44 -4q237 0 424 440q-1 -118 -1 138z" />
    <glyph glyph-name="P" unicode="P" horiz-adv-x="1139" 
d="M1067 981q0 -183 -121 -282q-111 -92 -298 -92q-98 0 -228 28v-395q0 -127 28 -159q39 -44 115 -44h52v-37h-581v37h51q86 0 123 56q20 31 20 147v876q0 128 -27 159q-39 44 -116 44h-51v37h497q160 0 254 -27q126 -36 202 -126q80 -94 80 -222zM839 961q0 199 -138 277
q-65 37 -150 37q-51 0 -131 -19v-564q106 -20 164 -20q115 0 187 89q68 83 68 200z" />
    <glyph glyph-name="Q" unicode="Q" horiz-adv-x="1479" 
d="M1401 677q0 -244 -133 -431q-135 -192 -366 -261q191 -330 490 -354v-32q-303 11 -592 195q-141 90 -243 191q-147 59 -228 123q-257 202 -257 573q0 311 180 506q186 200 494 200q300 0 481 -208q174 -198 174 -502zM1172 652q0 454 -225 598q-94 60 -213 60
q-235 0 -346 -208q-87 -163 -87 -421q0 -329 142 -507q125 -50 291 -137q233 0 347 201q91 160 91 414z" />
    <glyph glyph-name="R" unicode="R" horiz-adv-x="1366" 
d="M1384 0h-362l-459 634q-51 -2 -83 -2q-27 0 -59 2v-394q0 -127 28 -159q39 -44 114 -44h53v-37l-556 -4l32 40l-6 1q86 0 123 56q21 32 21 147v876q0 129 -28 159q-21 22 -38 33l4 -4l-32 60l393 -8q200 -4 266 -18q133 -28 212 -111q86 -89 86 -220q0 -273 -334 -347
l280 -389q85 -118 144 -162q79 -59 201 -72v-37zM852 982q0 133 -78 209.5t-212 76.5q-58 0 -157 -19l39 -529l-11 -35q19 -1 28 -1q163 0 267 66q124 78 124 232z" />
    <glyph glyph-name="S" unicode="S" horiz-adv-x="1139" 
d="M1025 354q0 -176 -128 -280q-119 -97 -299 -97q-74 0 -111 9l-139 34q-49 12 -113 34q-50 0 -55 -50l-44 8l4 396l28 12q29 -109 65 -176q48 -90 146 -141q91 -48 198 -48q110 0 185 55q85 61 85 167q0 110 -113 196q-70 53 -231 141q-156 85 -229 142q-150 118 -150 282
q0 162 120 262q112 95 277 95q109 0 229 -53q57 -25 78 -6q15 -5 27 -5q28 0 33 33l60 -4l-4 -400l-52 32q-28 187 -204 244q-44 48 -98 48q-35 0 -74 -20q-35 21 -67 21q-47 0 -89 -45q-77 -42 -77 -133q0 -61 43 -113q62 -74 295 -200q167 -90 206 -117q198 -136 198 -323
z" />
    <glyph glyph-name="T" unicode="T" horiz-adv-x="1251" 
d="M1200 1144h-68q4 -5 5 -6l1 1q-1 6 -6 19q-72 66 -218 113l-190 -27l-1 -1009q-11 -43 -11 -75q0 -59 38 -81q38 -27 117 -42l13 -1l8 -32l-532 -8l4 44l27 -3q86 0 122 52q31 18 31 74q0 31 -9 72l-15 1013l-144 4h-144q-102 -34 -102 -80q0 -6 2 -12l-68 8l18 188h1107
z" />
    <glyph glyph-name="U" unicode="U" horiz-adv-x="1479" 
d="M1457 1319h-51q-79 0 -110 -59q-12 -30 -12 -144v-560q-22 -188 -52 -284q-95 -304 -492 -304q-396 0 -500 284q-32 245 -32 334v530q0 105 -22 145q-32 58 -124 58l-50 9l16 80h576l-7 -89h-52q-85 -11 -120 -53q-61 -26 -73 -138l-4 -600q24 -240 119 -343
q73 -106 235 -106q17 0 34 1q132 -8 228 52q116 44 144 156q40 72 64 288v540q0 127 -52 156q-12 27 -62 27q-17 0 -38 -3h-48l16 100l468 -16z" />
    <glyph glyph-name="V" unicode="V" horiz-adv-x="1479" 
d="M1454 1319q-73 -13 -109 -46q-52 -47 -94 -150l-473 -1154h-37l-508 1169q-39 91 -55 110q-50 62 -160 71v37h554v-37q-150 -14 -150 -91q0 -50 46 -156l345 -795l320 785q47 115 47 161q0 71 -127 93l-17 3v37h418v-37z" />
    <glyph glyph-name="W" unicode="W" horiz-adv-x="1933" 
d="M1888 1312q-60 -32 -84 -92q-19 -20 -64 -160l-356 -1096l-85 1l-267 871l-349 -871h-36l-403 1126q-42 118 -57 149q-32 68 -75 68l8 52l388 -8l33 -37l-37 -27q-32 7 -43 7q-53 -1 -53 -62q0 -22 44 -161l236 -748l184 636v203q-41 118 -129 146q-3 3 13 19l4 48h400
v-56l-4 -44q-28 8 -51 8q-59 0 -85 -52q4 -52 92 -184l224 -748l260 768q15 45 44 160q0 49 -20 56q-35 12 -56 4l-8 80h344z" />
    <glyph glyph-name="X" unicode="X" horiz-adv-x="1479" 
d="M1455 0h-582v37q45 1 66 6q68 16 68 71q0 23 -9 46q-5 12 -55 88l-230 348l-284 -364q-63 -81 -63 -118q0 -72 130 -77v-37h-481v37q50 5 88 21q126 53 246 205l320 404l-267 391q-89 130 -148 180q-91 77 -212 81v37h627v-37q-139 -5 -139 -77q0 -36 48 -108l208 -311
l241 305q61 77 61 115q0 49 -50 67q-22 8 -95 9v37h481v-37q-58 -3 -93 -18q-97 -41 -226 -206l-269 -344l291 -434q99 -148 133 -183q87 -91 195 -97v-37z" />
    <glyph glyph-name="Y" unicode="Y" horiz-adv-x="1479" 
d="M1372 1320q-47 -1 -132 -90q-48 -50 -101 -140l-303 -514l-24 -341q24 -119 28 -156q38 -42 120 -42h44v-37h-576v37h48q86 0 122 52q-10 27 -26 139l32 316l-356 580q-49 80 -77 111q-32 36 -110 74q-5 3 -13 7v40h424l8 -24l4 -4q21 -9 -14 -29q-43 -24 -43 -68
q0 -20 61 -130l224 -405l256 392q100 92 104 128q-4 56 -44 76q-14 27 -20 28l-4 36h360zM1348 1320z" />
    <glyph glyph-name="Z" unicode="Z" horiz-adv-x="1251" 
d="M1180 324v-320l-1170 -12v37l850 1227h-412q-184 0 -208 -72q-4 -68 -28 -104l-68 8v280h956l-832 -1236h572q45 -11 78 -11q64 0 90 39q60 44 76 164h96z" />
    <glyph glyph-name="bracketleft" unicode="[" horiz-adv-x="605" 
d="M543 -387q0 -23 -25 -23h-375q-20 0 -20 23v1749q0 22 24 22h371q25 0 25 -20v-109q0 -22 -25 -22h-192v-1487h192q25 0 25 -22v-111z" />
    <glyph glyph-name="backslash" unicode="\" horiz-adv-x="748" 
d="M735 -280q7 -17 3 -23q-4 -7 -14 0l-76 52q-16 10 -23 29l-613 1603q-7 19 -2 23t20 -5l66 -38q15 -10 22 -27z" />
    <glyph glyph-name="bracketright" unicode="]" horiz-adv-x="605" 
d="M481 -387q0 -23 -20 -23h-375q-25 0 -25 23v111q0 22 25 22h195v1487h-195q-25 0 -25 22v109q0 20 25 20h371q24 0 24 -22v-1749z" />
    <glyph glyph-name="asciicircum" unicode="^" horiz-adv-x="788" 
d="M768 436h-160l-208 508l-232 -508h-141l317 701h107z" />
    <glyph glyph-name="underscore" unicode="_" horiz-adv-x="1032" 
d="M1042 -258h-1042l-8 130h1044z" />
    <glyph glyph-name="grave" unicode="`" horiz-adv-x="682" 
d="M447 1045l-55 -9l-274 354h223z" />
    <glyph glyph-name="a" unicode="a" horiz-adv-x="909" 
d="M905 132q-112 -150 -214 -150q-106 0 -108 150q-142 -110 -177 -126q-54 -25 -115 -25q-100 0 -160 69q-58 66 -58 167q0 142 173 244q102 60 337 146v36q0 239 -170 239q-53 0 -94 -29q-46 -32 -44 -83l2 -58q3 -96 -85 -96q-84 0 -84 97q0 113 117 177q96 53 218 53
q229 0 287 -138q18 -43 18 -176v-311q0 -181 22 -200q11 -10 26 -10q16 0 28 7q20 12 81 73v-56zM583 197v349q-149 -59 -195 -85q-147 -82 -147 -197q0 -65 38 -114q41 -53 104 -53q76 0 200 100z" />
    <glyph glyph-name="b" unicode="b" 
d="M954 493q0 -244 -162 -393q-139 -128 -310 -128q-159 0 -331 116v949q0 216 -31 241q-16 13 -40 13q-28 0 -70 -16l-14 35l275 112h45v-664q133 185 287 185q168 0 266 -147q85 -127 85 -303zM781 436q0 137 -58 240q-71 125 -199 125q-53 0 -106 -27q-40 -20 -102 -80
v-548q103 -101 217 -101q125 0 194 141q54 111 54 250z" />
    <glyph glyph-name="c" unicode="c" horiz-adv-x="909" 
d="M842 348q-32 -158 -126 -260q-106 -116 -258 -116q-183 0 -292 156q-96 138 -96 329q0 208 113 343q120 143 324 143q106 0 200 -56q109 -65 109 -164q0 -85 -93 -85q-60 0 -89 38q-7 9 -23 82q-26 118 -137 118q-100 0 -161 -74q-81 -98 -81 -259q0 -155 70 -274
q83 -141 228 -141q97 0 176 67q55 47 107 167z" />
    <glyph glyph-name="d" unicode="d" 
d="M1029 85l-272 -113h-46v131q-125 -131 -269 -131q-170 0 -277 143q-97 130 -97 305q0 201 119 356q129 168 324 168q121 0 200 -77v169q0 217 -31 242q-16 13 -40 13q-26 0 -69 -16l-13 35l273 112h45v-1059q0 -219 32 -246q16 -14 38 -14q27 0 72 17zM711 173v472
q0 143 -115 209q-49 28 -97 28q-88 0 -157 -79q-91 -104 -91 -304q0 -153 64 -272q78 -145 220 -145q91 0 176 91z" />
    <glyph glyph-name="e" unicode="e" horiz-adv-x="909" 
d="M851 334q-23 -151 -122 -252q-106 -110 -253 -110q-189 0 -300 147q-100 133 -100 327q0 216 101 349q112 149 322 149q162 0 258 -107q94 -103 94 -266h-633q-1 -170 79 -293q93 -143 255 -143q186 0 268 219zM642 629q-5 88 -21 124q-53 120 -178 120q-97 0 -159 -76
q-56 -67 -66 -168h424z" />
    <glyph glyph-name="f" unicode="f" horiz-adv-x="682" 
d="M890 1251q0 -30 -26 -56.5t-56 -26.5q-13 0 -109.5 90t-138.5 90q-97 0 -124 -100q-14 -52 -14 -266v-66h236v-72h-236v-602q0 -128 28 -162q37 -44 99 -44h83v-36h-547v36h41q92 0 119 74q12 33 12 132v602h-178v72h178v60q0 270 179 386q90 58 203 58q105 0 193 -68
q58 -45 58 -101z" />
    <glyph glyph-name="g" unicode="g" 
d="M987 836q0 -38 -15 -44q-8 -3 -51 -3h-119q56 -72 56 -184q0 -145 -111 -231q-101 -79 -250 -79q-68 0 -139 20q-75 -65 -75 -115q0 -44 81 -56q29 -4 140 -7q207 -5 267 -14q90 -13 144 -64q60 -56 60 -143q0 -113 -106 -212q-156 -146 -407 -146q-194 0 -326 87
q-75 49 -75 104q0 50 81 151q8 10 102 108q-95 57 -95 111q0 81 160 215q-174 85 -174 277q0 153 108 245q101 87 257 87q131 0 227 -64h194q43 0 50 -3q16 -7 16 -40zM683 580q0 159 -69 249q-51 66 -131 66q-92 0 -137 -78q-37 -63 -37 -162q0 -158 68 -245
q52 -66 132 -66q174 0 174 236zM902 -123q0 69 -103 90q-33 7 -154 10q-209 6 -346 23q-95 -103 -95 -176q0 -48 58 -84q100 -62 289 -62q123 0 219 39q132 54 132 160z" />
    <glyph glyph-name="h" unicode="h" 
d="M1011 0h-450v36h21q105 0 124 77q3 12 3 94v324q0 113 -4 143q-20 148 -143 148q-106 0 -229 -131v-484q0 -70 3 -88q14 -83 145 -83v-36h-454v36q60 0 96 19q44 23 44 152v829q0 217 -30 242q-15 13 -42 13q-21 0 -68 -16l-14 35l274 112h46v-670q83 91 135 129
q85 62 171 62q165 0 217 -178q19 -65 19 -234v-324q0 -86 14 -119q22 -52 122 -52v-36z" />
    <glyph glyph-name="i" unicode="i" horiz-adv-x="569" 
d="M398 1321q0 -42 -29.5 -72t-71.5 -30t-72 30t-30 72q0 43 29.5 72t72.5 29q42 0 71.5 -29.5t29.5 -71.5zM519 0h-445v36q102 0 127 56q13 29 13 115v353q0 150 -9 193q-12 57 -63 57q-28 0 -68 -15l-14 36l276 112h44v-736q0 -129 50 -157q25 -14 89 -14v-36z" />
    <glyph glyph-name="j" unicode="j" horiz-adv-x="569" 
d="M400 1320q0 -43 -30 -72.5t-73 -29.5q-42 0 -72 30t-30 72q0 43 29.5 73t72.5 30t73 -30t30 -73zM383 21q0 -200 -78 -320q-92 -143 -282 -143q-60 0 -111 21q-68 28 -68 80q0 34 24 59.5t58 25.5q24 0 53 -13q15 -7 71 -55q45 -39 76 -39q61 0 81 80q11 44 11 189v652
q0 151 -9 194q-12 58 -63 58q-28 0 -68 -15l-14 36l276 112h43v-922z" />
    <glyph glyph-name="k" unicode="k" 
d="M1036 0h-445v36q65 2 65 41q0 23 -40 74l-281 359v-304q0 -132 48 -157q23 -12 100 -13v-36h-466v36q113 0 137 51q15 32 15 114v834q0 219 -30 244q-15 13 -42 13q-21 0 -63 -17l-17 35l272 112h46v-912l233 213q73 67 86 86q8 12 8 24q0 47 -71 51v32h398v-32
q-144 -4 -256 -107l-235 -217l235 -297q94 -119 132 -156q48 -47 84 -61q25 -10 87 -10v-36z" />
    <glyph glyph-name="l" unicode="l" horiz-adv-x="569" 
d="M527 0h-449v36q98 0 122 56q13 30 13 115v832q0 215 -29 239q-15 13 -40 13q-26 0 -66 -16l-17 35l273 112h45v-1215q0 -128 51 -156q27 -15 97 -15v-36z" />
    <glyph glyph-name="m" unicode="m" horiz-adv-x="1593" 
d="M1584 0h-452v36h19q105 0 125 74q4 15 4 97v394q0 113 -27 158q-38 64 -125 64q-104 0 -236 -125l-2 -11l2 -43v-437q0 -70 3 -88q14 -83 146 -83v-36h-463v36q122 0 144 72q5 16 5 99v394q0 113 -33 161q-44 64 -123 64q-53 0 -107 -29q-84 -45 -128 -99v-491
q0 -129 50 -157q25 -14 99 -14v-36h-453v36q101 0 126 57q13 29 13 114v350q0 152 -9 195q-12 58 -63 58q-28 0 -67 -15l-15 36l276 112h43v-195q99 99 118 115q95 80 200 80q188 0 231 -195q81 94 139 135q85 60 181 60q157 0 219 -160q22 -57 22 -182v-394q0 -88 13 -118
q23 -53 125 -53v-36z" />
    <glyph glyph-name="n" unicode="n" 
d="M1015 0h-453v36h19q105 0 125 77q4 15 4 94v375q0 238 -142 238q-119 0 -237 -130v-483q0 -92 11 -115q27 -56 138 -56v-36h-453v36h20q77 0 102 49q17 34 17 122v340q0 225 -30 250q-15 13 -42 13q-28 0 -67 -15l-15 36l276 112h43v-194q161 194 307 194q155 0 215 -161
q22 -59 22 -184v-391q0 -129 50 -157q25 -14 90 -14v-36z" />
    <glyph glyph-name="o" unicode="o" 
d="M953 475q0 -131 -55 -247q-60 -125 -165 -190.5t-232 -65.5q-207 0 -329 165q-103 139 -103 312q0 130 57 246q61 124 166.5 186t219.5 62q208 0 334 -158q107 -135 107 -310zM767 398q0 243 -105 384q-72 96 -181 96q-134 0 -193 -142q-33 -79 -33 -203q0 -170 61 -309
q79 -181 228 -181q223 0 223 355z" />
    <glyph glyph-name="p" unicode="p" 
d="M955 491q0 -237 -136 -392q-112 -127 -282 -127q-74 0 -128 21q-41 16 -90 60v-279q0 -74 3 -90q9 -49 49 -70q29 -15 103 -15v-37h-480v37h25q89 0 115 46q19 33 19 135v866q0 126 -33 149q-17 12 -48 12q-24 0 -61 -14l-12 32l282 114h38v-214q128 218 293 218
q138 0 230 -108q113 -132 113 -344zM777 397q0 210 -92 323q-64 78 -152 78q-48 0 -95 -24q-36 -18 -119 -108v-342q0 -110 9 -146q17 -68 77 -108q56 -38 129 -38q100 0 162 78q81 102 81 287z" />
    <glyph glyph-name="q" unicode="q" 
d="M1024 -438h-462v37h19q94 0 117 55q12 29 12 111v394q-158 -187 -300 -187q-161 0 -258 148q-84 129 -84 297q0 223 122 370q130 156 349 156q115 0 191 -64q58 28 111 64h34v-1178q0 -64 4 -85q9 -47 46 -67q26 -14 99 -14v-37zM710 222v430q0 138 -89 191
q-50 30 -113 30q-142 0 -214 -127q-58 -102 -58 -256q0 -150 62 -253q75 -124 216 -124q111 0 196 109z" />
    <glyph glyph-name="r" unicode="r" horiz-adv-x="682" 
d="M695 832q0 -38 -25 -65.5t-63 -27.5q-20 0 -80.5 34.5t-62.5 34.5q-17 0 -39 -20q-46 -42 -93 -135v-439q0 -94 32 -134q36 -44 128 -44v-36h-469v36q118 0 139 73q5 17 5 97v355q0 137 1 121q-5 93 -31 114q-17 14 -44 14q-31 0 -70 -15l-10 36l277 112h42v-206
q115 206 236 206q50 0 88.5 -31t38.5 -80z" />
    <glyph glyph-name="s" unicode="s" horiz-adv-x="797" 
d="M725 250q0 -129 -90 -206q-85 -72 -216 -72q-86 0 -192 30q-35 10 -54 10q-23 0 -36 -26h-33v327h33q24 -121 92 -196q77 -86 192 -86q64 0 108 37q48 39 48 101q0 83 -85 147q-42 32 -164 91q-108 53 -157 100q-71 69 -71 171q0 118 81 192q78 73 197 73q54 0 131 -23
q51 -15 68 -15q27 0 46 38h33v-312h-33q-32 122 -78 178q-61 75 -171 75q-58 0 -104 -30q-52 -34 -52 -89q0 -106 158 -183l146 -71q203 -99 203 -261z" />
    <glyph glyph-name="t" unicode="t" horiz-adv-x="569" 
d="M572 182q-70 -197 -231 -197q-111 0 -155 99q-21 47 -21 146v616h-145v33q123 49 215 199q21 35 64 139h31v-301h214v-70h-214v-594q0 -151 91 -151q78 0 112 81h39z" />
    <glyph glyph-name="u" unicode="u" 
d="M1021 85l-274 -113h-45v194q-89 -97 -137 -132q-85 -62 -174 -62q-162 0 -212 159q-22 70 -22 198v409q0 102 -55 129q-26 13 -100 12v37h321v-613q0 -208 152 -208q99 0 227 130v519q0 81 -34 109q-30 24 -113 26v37h312v-555q0 -217 32 -244q16 -14 38 -14q31 0 70 17z
" />
    <glyph glyph-name="v" unicode="v" 
d="M1005 879q-52 -4 -72 -21q-33 -28 -63 -100l-325 -786h-41l-327 773q-37 88 -93 117q-17 9 -67 17v37h431v-37h-28q-80 0 -80 -70q0 -33 21 -83l213 -506l214 525q23 56 23 85q0 14 -8 23q-19 26 -97 26v37h299v-37z" />
    <glyph glyph-name="w" unicode="w" horiz-adv-x="1479" 
d="M1460 879q-87 -13 -128 -118l-306 -789h-41l-229 585l-267 -585h-37l-294 770q-25 65 -51 92q-31 31 -94 45v37h384v-37q-86 -6 -86 -62q0 -29 17 -75l196 -527l197 429l-52 135q-22 58 -63 83q-23 14 -82 17v37h436v-37q-122 -5 -122 -77q0 -21 8 -41l208 -526l193 507
q20 53 20 86q0 48 -96 51v37h289v-37z" />
    <glyph glyph-name="x" unicode="x" 
d="M999 0h-432v36q89 0 89 57q0 22 -64 116l-134 196l-147 -196q-68 -91 -68 -108q0 -61 90 -65v-36h-299v36q37 5 63 25q39 30 128 148l192 255l-174 252q-60 87 -88 113q-54 50 -128 50v37h431v-37q-74 0 -74 -51q0 -24 35 -74q17 -24 33 -50l65 -104l75 104
q72 100 72 125q0 50 -72 50v37h310v-37q-49 -3 -85 -27q-47 -32 -134 -148l-125 -167l228 -328q66 -95 87 -116q53 -53 126 -57v-36z" />
    <glyph glyph-name="y" unicode="y" 
d="M1012 879q-63 -7 -101 -61q-6 -9 -34 -77l-373 -914q-44 -108 -119 -181q-89 -88 -191 -88q-53 0 -92 29q-43 32 -43 83q0 93 103 93q32 0 90 -22q39 -15 50 -15q75 0 137 151l65 159l-329 691q-14 30 -48 77q-26 36 -41 47q-22 16 -74 28v37h427v-37h-21q-90 0 -90 -68
q0 -40 33 -108l223 -462l205 506q17 42 17 81q0 33 -32 45q-16 6 -60 6v37h298v-37z" />
    <glyph glyph-name="z" unicode="z" horiz-adv-x="909" 
d="M876 879l-614 -812h334q83 0 116 9q59 16 87 70q16 31 27 135h34l-11 -281h-808v36l608 810h-300q-77 0 -100 -5q-98 -21 -107 -179h-40l6 254h768v-37z" />
    <glyph glyph-name="braceleft" unicode="{" horiz-adv-x="600" 
d="M539 -410q0 -15 -35 -24v0q-422 143 -422 311q0 59 22 123l74 209q17 46 17 94q0 85 -91 168q-22 21 -22 29t22 28q91 83 91 168q0 48 -17 95l-74 208q-22 64 -22 123q0 169 422 312v0q35 -9 35 -25v-94q0 -10 -31 -10q-94 0 -152 -72q-51 -63 -51 -143q0 -26 6 -48
l72 -251q8 -29 8 -66q0 -136 -131 -225q131 -89 131 -228q0 -34 -8 -63l-72 -254q-6 -22 -6 -45q0 -80 51 -143q58 -72 152 -72q31 0 31 -10v-95z" />
    <glyph glyph-name="bar" unicode="|" horiz-adv-x="372" 
d="M229 -410h-86v1790h86v-1790z" />
    <glyph glyph-name="braceright" unicode="}" horiz-adv-x="600" 
d="M518 -123q0 -168 -422 -311v0q-35 9 -35 24v95q0 10 31 10q94 0 152 72q51 63 51 143q0 23 -6 45l-70 254q-10 37 -10 63q0 139 131 228q-131 89 -131 225q0 28 10 66l70 251q6 23 6 48q0 80 -51 143q-58 72 -152 72q-31 0 -31 10v94q0 16 35 25v0q422 -143 422 -312
q0 -57 -22 -123l-72 -208q-18 -54 -18 -95q0 -85 90 -168q22 -20 22 -28t-22 -29q-90 -83 -90 -168q0 -40 18 -94l72 -209q22 -66 22 -123z" />
    <glyph glyph-name="asciitilde" unicode="~" horiz-adv-x="1112" 
d="M1081 645q-135 -237 -311 -237q-68 0 -134 29l-104 46q-121 70 -202 70q-70 0 -127 -51q-39 -35 -107 -131l-76 100q123 217 305 217q74 0 240 -76q171 -58 209 -58q116 0 209 155z" />
    <glyph glyph-name="nonbreakingspace" unicode="&#xa0;" horiz-adv-x="453" 
 />
    <glyph glyph-name="exclamdown" unicode="&#xa1;" horiz-adv-x="623" 
d="M340 822l-115 -119l-119 121l117 119zM328 107q-3 -143 -45 -274l-177 211q78 220 78 430v86q151 -168 144 -453z" />
    <glyph glyph-name="cent" unicode="&#xa2;" 
d="M900 349q-47 -188 -163 -292q-90 -81 -221 -81q-81 0 -162 35l-142 -390h-70l155 427q-81 76 -117 154q-51 110 -51 250q0 253 157 390q121 105 273 105q20 0 61 -4l140 383h72l-145 -402q101 -45 138 -87q48 -54 48 -115q0 -85 -94 -85q-55 0 -86 38q-18 22 -26 82
q-4 31 -17 65l-228 -631q87 -61 163 -61q129 0 202 86q32 38 83 146zM593 865q-28 12 -60 12q-102 0 -162 -74q-82 -100 -82 -268q0 -137 81 -285z" />
    <glyph glyph-name="sterling" unicode="&#xa3;" horiz-adv-x="907" 
d="M799 176l-62 -176h-671l69 176h60q20 113 20 244q0 20 -1 60.5t-1 60.5h-109l56 147h47q-3 21 -2 70q3 174 114 294q115 124 287 126q107 1 189 -66l-95 -147q-106 67 -196 67q-142 0 -142 -160q0 -32 9 -182h168l-58 -147h-106q-8 -247 -94 -367h518z" />
    <glyph glyph-name="currency" unicode="&#xa4;" 
d="M995 253l-58 -55l-143 143q-134 -103 -270 -103q-77 0 -158 26q-91 29 -137 77l-146 -143l-56 55l144 145q-102 117 -102 282q0 157 102 283l-144 141l56 57l146 -142q118 102 285 102q162 0 280 -102l143 142l58 -57l-144 -141q103 -132 103 -281q0 -154 -103 -284z
M874 679q0 97 -50 182.5t-135 132t-177 46.5q-159 0 -260.5 -102t-101.5 -261q0 -157 102 -258t259 -101t260 102t103 259z" />
    <glyph glyph-name="yen" unicode="&#xa5;" 
d="M1023 352h-426v-108q0 -113 11 -143q22 -60 119 -60h41v-41h-515v41h32q118 0 137 83q4 18 4 120v108h-424v73h424v144l-15 36h-409v73h377l-213 496q-31 73 -59 102q-39 41 -105 42v38h442v-38q-121 -8 -121 -62q0 -15 18 -59l214 -519l213 504q21 50 21 75q0 21 -21 41
q-13 13 -64 17q-7 1 -27 3v38h346v-38q-59 0 -87 -23q-44 -36 -86 -132l-214 -485h387v-73h-419l-7 -16v-164h426v-73z" />
    <glyph glyph-name="brokenbar" unicode="&#xa6;" horiz-adv-x="410" 
d="M244 680h-83v742h83v-742zM244 -442h-83v742h83v-742z" />
    <glyph glyph-name="section" unicode="&#xa7;" horiz-adv-x="907" 
d="M809 592q2 -76 -133 -219q102 -46 102 -168q0 -112 -117 -181q-100 -59 -219 -59q-161 0 -313 78l117 156q191 -121 336 -121q33 0 60.5 23t27.5 55q0 43 -125 102l-305 145q-142 68 -142 166q0 110 135 226q-108 60 -108 166q0 114 102 183q89 60 209 60q168 0 322 -92
l-111 -141q-169 131 -313 131q-37 0 -66 -23q-32 -25 -32 -61q0 -40 54 -73q19 -11 113 -56l230 -109q173 -82 176 -188zM674 498q1 76 -109 129l-280 135q-64 -64 -64 -107q0 -59 117 -114l285 -135q50 44 51 92z" />
    <glyph glyph-name="dieresis" unicode="&#xa8;" horiz-adv-x="682" 
d="M626 1228q0 -45 -31.5 -76.5t-76.5 -31.5t-77 31.5t-32 76.5t32 77t77 32t76.5 -32t31.5 -77zM274 1228q0 -45 -31.5 -76.5t-76.5 -31.5t-77 31.5t-32 76.5t31.5 77t76.5 32q46 0 77.5 -31.5t31.5 -77.5z" />
    <glyph glyph-name="copyright" unicode="&#xa9;" horiz-adv-x="1556" 
d="M1488 678q0 -192 -95 -356q-96 -167 -262 -259q-170 -94 -353 -94q-195 0 -357 93q-165 94 -258.5 263t-93.5 353q0 193 96.5 360.5t265 258t347.5 90.5q190 0 355 -94q169 -95 260 -259q95 -171 95 -356zM1426 678q0 177 -88 329t-242 235.5t-318 83.5
q-171 0 -324 -87.5t-236 -235.5q-87 -156 -87 -325q0 -176 87 -327t239.5 -236t320.5 -85q178 0 328.5 86t235 239.5t84.5 322.5zM1166 431q-139 -203 -383 -203q-202 0 -331 120q-132 123 -132 324q0 212 145 340q138 123 353 123q70 0 185 -38q24 -8 37 -8q31 0 49 45h40
l20 -280h-39q-71 236 -303 236q-161 0 -246 -118q-75 -104 -75 -271q0 -182 72 -288q85 -125 259 -125q195 0 312 162z" />
    <glyph glyph-name="ordfeminine" unicode="&#xaa;" horiz-adv-x="565" 
d="M563 857q-102 -74 -149 -74q-57 0 -73 95q-127 -91 -215 -91q-55 0 -93 34.5t-38 89.5q0 90 129 170q52 32 217 99q0 83 -14 118q-23 58 -92 58q-67 0 -86 -45q-1 -8 -13 -85q-7 -45 -53 -45q-56 0 -56 60q0 78 84 115q63 28 150 28q166 0 205 -95q13 -32 13 -109v-218
q0 -53 2 -61q6 -26 24 -26q14 0 58 30v-48zM341 916v226q-207 -69 -207 -184q0 -36 26.5 -61t62.5 -25q44 0 118 44z" />
    <glyph glyph-name="guillemotleft" unicode="&#xab;" 
d="M960 -8h-58l-394 472l394 470h58l-243 -470zM508 -8h-57l-387 472l387 470h57l-244 -470z" />
    <glyph glyph-name="logicalnot" unicode="&#xac;" horiz-adv-x="1155" 
d="M1116 472h-79v325h-1001v81h1080v-406z" />
    <glyph glyph-name="sfthyphen" unicode="&#xad;" horiz-adv-x="1155" 
d="M1116 797h-1080v81h1080v-81z" />
    <glyph glyph-name="sfthyphen" unicode="&#x2212;" horiz-adv-x="1155" 
d="M1116 797h-1080v81h1080v-81z" />
    <glyph glyph-name="registered" unicode="&#xae;" horiz-adv-x="1556" 
d="M1488 678q0 -192 -95 -356q-96 -167 -262 -259q-170 -94 -353 -94q-195 0 -357 93q-165 94 -258.5 263t-93.5 353q0 193 96.5 360.5t265 258t347.5 90.5q190 0 355 -94q169 -95 260 -259q95 -171 95 -356zM1426 678q0 177 -88 329t-242 235.5t-318 83.5
q-171 0 -324 -87.5t-236 -235.5q-87 -156 -87 -325q0 -176 87 -327t239.5 -236t320.5 -85q178 0 328.5 86t235 239.5t84.5 322.5zM1177 249h-184l-294 405h-76v-309q11 -63 118 -63v-33h-367v33q78 0 97 45q7 17 7 93v523q0 76 -3 87q-13 48 -89 48v36h386q120 0 201 -51
q96 -60 96 -173q0 -164 -222 -222l209 -298q37 -53 68 -73q18 -12 53 -15v-33zM908 879q0 87 -56.5 139t-144.5 52q-38 0 -84 -16v-357q195 0 256 88q29 42 29 94z" />
    <glyph glyph-name="macron" unicode="&#xaf;" horiz-adv-x="840" 
d="M758 426q0 -23 -23 -23h-631q-22 0 -22 23v117q0 22 22 22h631q23 0 23 -22v-117z" />
    <glyph glyph-name="macron" unicode="&#x2c9;" horiz-adv-x="840" 
d="M758 426q0 -23 -23 -23h-631q-22 0 -22 23v117q0 22 22 22h631q23 0 23 -22v-117z" />
    <glyph glyph-name="degree" unicode="&#xb0;" horiz-adv-x="797" 
d="M711 1038q0 -137 -88.5 -224t-225.5 -87q-136 0 -224.5 87.5t-88.5 223.5q0 137 88 225.5t225 88.5t225.5 -88.5t88.5 -225.5zM633 1038q0 101 -65.5 166.5t-166.5 65.5q-102 0 -166.5 -65t-64.5 -167t64.5 -166.5t166.5 -64.5t167 64.5t65 166.5z" />
    <glyph glyph-name="plusminus" unicode="&#xb1;" horiz-adv-x="1251" 
d="M1120 377h-415v-307h-123v307h-416v123h416v434h123v-434h415v-123zM1120 -123h-954v123h954v-123z" />
    <glyph glyph-name="twosuperior" unicode="&#xb2;" horiz-adv-x="567" 
d="M516 838l-49 -121h-395q32 157 123 266q26 31 97 114q56 65 56 117q0 108 -143 111q-53 1 -92 -10q32 78 53 117q43 12 94 12q90 0 149 -44q66 -49 66 -136q0 -93 -74 -166l-131 -129q-57 -56 -67 -131h313z" />
    <glyph glyph-name="threesuperior" unicode="&#xb3;" horiz-adv-x="567" 
d="M502 987q0 -130 -83 -215.5t-212 -85.5q-77 0 -141 41l75 115q46 -39 115 -39q56 0 98 31q47 34 47 88q0 53 -54 86q-45 28 -103 30q-28 1 -66 -10l17 90q118 58 118 144q0 64 -116 67q-36 1 -78 -4q8 23 55 113q28 6 62 6q81 0 138 -36q68 -42 68 -118q0 -107 -108 -160
q64 0 114 -39q54 -42 54 -104z" />
    <glyph glyph-name="acute" unicode="&#xb4;" horiz-adv-x="682" 
d="M565 1390l-295 -345h-34l105 345h224z" />
    <glyph glyph-name="micro" unicode="&#xb5;" horiz-adv-x="1180" 
d="M1094 204q-17 -232 -198 -232q-141 0 -158 190q-162 -190 -314 -190q-54 0 -92 21q-27 15 -63 64q-1 -31 -1 -46q0 -79 34 -239q13 -61 13 -104t-25 -75q-27 -35 -69 -35q-87 0 -87 109q0 47 29 165q19 78 22 104q12 106 12 179v47l-1 28v726h164v-533q0 -144 18 -198
q30 -90 124 -90q118 0 236 134v687h165v-654q0 -102 8 -131q14 -51 60 -51q62 0 81 124h42z" />
    <glyph glyph-name="micro" unicode="&#x3bc;" horiz-adv-x="1180" 
d="M1094 204q-17 -232 -198 -232q-141 0 -158 190q-162 -190 -314 -190q-54 0 -92 21q-27 15 -63 64q-1 -31 -1 -46q0 -79 34 -239q13 -61 13 -104t-25 -75q-27 -35 -69 -35q-87 0 -87 109q0 47 29 165q19 78 22 104q12 106 12 179v47l-1 28v726h164v-533q0 -144 18 -198
q30 -90 124 -90q118 0 236 134v687h165v-654q0 -102 8 -131q14 -51 60 -51q62 0 81 124h42z" />
    <glyph glyph-name="paragraph" unicode="&#xb6;" horiz-adv-x="928" 
d="M932 1301h-133v-1743h-72v1743h-187v-1743h-73v1043q-158 7 -243 35q-237 78 -237 345q0 109 43 180q119 195 407 195h495v-55z" />
    <glyph glyph-name="periodcentered" unicode="&#xb7;" horiz-adv-x="682" 
d="M705 703q0 -43 -31 -74t-74 -31t-74 31t-31 74q0 44 30.5 74.5t74.5 30.5t74.5 -30.5t30.5 -74.5z" />
    <glyph glyph-name="periodcentered" unicode="&#x2219;" horiz-adv-x="682" 
d="M705 703q0 -43 -31 -74t-74 -31t-74 31t-31 74q0 44 30.5 74.5t74.5 30.5t74.5 -30.5t30.5 -74.5z" />
    <glyph glyph-name="cedilla" unicode="&#xb8;" horiz-adv-x="682" 
d="M496 -209q0 -83 -68 -134q-61 -47 -147 -47q-37 0 -94 7v43q28 -4 48 -4q48 0 84.5 31.5t36.5 78.5q0 32 -24 53t-56 21q-10 0 -26 -2l111 178h60l-50 -79q125 -32 125 -146z" />
    <glyph glyph-name="onesuperior" unicode="&#xb9;" horiz-adv-x="567" 
d="M518 838l-72 -121h-364l65 121h99v428q-69 55 -135 80q111 76 247 106v-614h160z" />
    <glyph glyph-name="ordmasculine" unicode="&#xba;" horiz-adv-x="635" 
d="M611 1091q0 -132 -84 -218t-216 -86q-126 0 -204 81t-78 207q0 140 78.5 224.5t216.5 84.5q128 0 207.5 -82t79.5 -211zM473 1023q0 157 -71 256q-44 62 -106 62q-126 0 -126 -188q0 -158 69 -258q39 -57 102 -57q132 0 132 185z" />
    <glyph glyph-name="guillemotright" unicode="&#xbb;" 
d="M960 462l-387 -470h-57l244 470l-244 472h57zM516 462l-394 -470h-58l243 470l-243 472h58z" />
    <glyph glyph-name="onequarter" unicode="&#xbc;" horiz-adv-x="1360" 
d="M1348 305l-72 -123h-86v-139l-113 -53v192h-264q0 7 -1 20.5t-1 20.5q0 194 111 331q107 133 297 185q-27 -56 -27 -110v-324h156zM1145 1192l-783 -1221h-100l780 1221h103zM518 592l-72 -121h-364l65 121h99v428q-69 55 -135 80q111 76 247 106v-614h160zM1077 305v273
q-78 -33 -125 -109.5t-47 -163.5h172z" />
    <glyph glyph-name="onehalf" unicode="&#xbd;" horiz-adv-x="1360" 
d="M1303 121l-50 -121h-395q31 159 123 266l98 114q56 65 56 118q0 108 -144 110q-56 1 -92 -10q33 78 53 117q43 12 95 12q90 0 149 -44q66 -49 66 -136q0 -92 -74 -165l-131 -130q-57 -56 -68 -131h314zM1145 1192l-783 -1221h-100l780 1221h103zM518 592l-72 -121h-364
l65 121h99v428q-69 55 -135 80q111 76 247 106v-614h160z" />
    <glyph glyph-name="threequarters" unicode="&#xbe;" horiz-adv-x="1360" 
d="M1348 305l-72 -123h-86v-139l-113 -53v192h-264q0 7 -1 20.5t-1 20.5q0 194 111 331q107 133 297 185q-27 -56 -27 -110v-324h156zM1145 1192l-783 -1221h-100l780 1221h103zM502 741q0 -130 -83 -215.5t-212 -85.5q-77 0 -141 41l75 115q46 -39 115 -39q56 0 98 31
q47 34 47 88q0 53 -54 86q-45 28 -103 31q-23 1 -66 -11l17 90q118 58 118 144q0 64 -116 67q-36 1 -78 -4q8 23 55 113q28 6 62 6q81 0 138 -36q68 -42 68 -118q0 -107 -108 -159q65 0 114 -39q54 -42 54 -105zM1077 305v273q-78 -33 -125 -109.5t-47 -163.5h172z" />
    <glyph glyph-name="questiondown" unicode="&#xbf;" horiz-adv-x="737" 
d="M479 820l-110 -123l-117 119l110 127zM561 40l-115 -168q-12 -2 -34 -2q-109 0 -177 53q-75 58 -75 164q0 42 70.5 163.5t70.5 135.5q0 50 -43 80l115 125q61 -69 61 -123q0 -73 -59 -152q-43 -58 -43 -118q0 -72 52 -118q49 -45 122 -46q35 -1 55 6z" />
    <glyph glyph-name="multiply" unicode="&#xd7;" horiz-adv-x="1251" 
d="M1073 80l-67 -74l-363 373l-362 -373l-74 74l362 373l-362 366l74 74l362 -367l363 373l67 -74l-356 -372z" />
    <glyph glyph-name="divide" unicode="&#xf7;" horiz-adv-x="1251" 
d="M748 762q0 -46 -32.5 -77.5t-78.5 -31.5t-78.5 31.5t-32.5 77.5t32.5 78t78.5 32t78.5 -32t32.5 -78zM1120 377h-954v123h954v-123zM748 113q0 -46 -32.5 -77.5t-78.5 -31.5t-78.5 31.5t-32.5 77.5t32.5 78t78.5 32t78.5 -32t32.5 -78z" />
    <glyph glyph-name="florin" unicode="&#x192;" 
d="M999 1275q0 -77 -68 -77q-24 0 -43.5 16.5t-19.5 39.5q0 11 11 33.5t11 27.5q0 26 -35 26q-80 0 -104 -108q-28 -126 -64 -358h178l-17 -66h-174q-53 -274 -172 -708q-93 -339 -205 -449q-85 -83 -173 -83q-51 0 -85 27q-37 29 -37 78q0 35 21.5 62t55.5 27
q24 0 44.5 -16.5t20.5 -39.5q0 -15 -12 -36l-12 -21q0 -21 25 -21q50 0 96 74q28 44 60 177q9 38 86 415q4 19 123 514h-177l15 66l90 7q61 11 93 63q13 21 44 111q53 153 95 216q77 115 192 115q55 0 93 -28q44 -31 44 -84z" />
    <glyph glyph-name="sheva" unicode="&#x5b0;" horiz-adv-x="147" 
d="M147 -279h-147v146h147v-146zM147 -510h-147v145h147v-145z" />
    <glyph glyph-name="hatafsegol" unicode="&#x5b1;" horiz-adv-x="651" 
d="M651 -279h-147v146h147v-146zM651 -510h-147v145h147v-145zM399 -279h-147v146h147v-146zM147 -279h-147v146h147v-146zM274 -510h-147v145h147v-145z" />
    <glyph glyph-name="hatafpatah" unicode="&#x5b2;" horiz-adv-x="635" 
d="M635 -279h-148v146h148v-146zM635 -510h-148v145h148v-145zM399 -256h-399v123h399v-123z" />
    <glyph glyph-name="hatafqamats" unicode="&#x5b3;" horiz-adv-x="635" 
d="M635 -279h-148v146h148v-146zM635 -510h-148v145h148v-145zM399 -256h-145l8 -207h-121l6 207h-147v123h399v-123z" />
    <glyph glyph-name="hiriq" unicode="&#x5b4;" horiz-adv-x="147" 
d="M147 -279h-147v146h147v-146z" />
    <glyph glyph-name="tsere" unicode="&#x5b5;" horiz-adv-x="399" 
d="M399 -279h-147v146h147v-146zM147 -279h-147v146h147v-146z" />
    <glyph glyph-name="segol" unicode="&#x5b6;" horiz-adv-x="399" 
d="M399 -279h-147v146h147v-146zM147 -279h-147v146h147v-146zM274 -510h-147v145h147v-145z" />
    <glyph glyph-name="patah" unicode="&#x5b7;" horiz-adv-x="399" 
d="M399 -256h-399v123h399v-123z" />
    <glyph glyph-name="qamats" unicode="&#x5b8;" horiz-adv-x="399" 
d="M399 -256h-145l8 -207h-121l6 207h-147v123h399v-123z" />
    <glyph glyph-name="holam" unicode="&#x5b9;" horiz-adv-x="147" 
d="M147 1135h-147v145h147v-145z" />
    <glyph glyph-name="qibuts" unicode="&#x5bb;" horiz-adv-x="651" 
d="M651 -510h-147v145h147v-145zM399 -395h-147v145h147v-145zM147 -279h-147v146h147v-146z" />
    <glyph glyph-name="dagesh" unicode="&#x5bc;" horiz-adv-x="147" 
d="M147 442h-147v146h147v-146z" />
    <glyph glyph-name="meteg" unicode="&#x5bd;" horiz-adv-x="92" 
d="M92 -393h-92v260h92v-260z" />
    <glyph glyph-name="maqaf" unicode="&#x5be;" horiz-adv-x="696" 
d="M594 936l-41 -102q-9 -23 -23 -23h-405q-25 0 -25 14q1 4 2 9l41 102q9 22 23 22h405q23 0 23 -18v-4z" />
    <glyph glyph-name="rafe" unicode="&#x5bf;" horiz-adv-x="1" 
d="M252 1290q0 -27 -28 -27h-447q-27 0 -27 27v43q0 28 27 28h447q28 0 28 -28v-43z" />
    <glyph glyph-name="paseq" unicode="&#x5c0;" horiz-adv-x="372" 
d="M229 -410h-86v1790h86v-1790z" />
    <glyph glyph-name="shindot" unicode="&#x5c1;" horiz-adv-x="1247" 
d="M999 1135h-147v145h147v-145z" />
    <glyph glyph-name="sindot" unicode="&#x5c2;" horiz-adv-x="1247" 
d="M270 1135h-147v145h147v-145z" />
    <glyph glyph-name="sofpasuq" unicode="&#x5c3;" horiz-adv-x="423" 
d="M319 690q0 -59 -40.5 -100t-102.5 -41t-103.5 41t-41.5 100t41.5 100t103.5 41t102.5 -41t40.5 -100zM319 113q0 -60 -40.5 -101t-102.5 -41t-103.5 41.5t-41.5 100.5t41.5 100t103.5 41t102.5 -41t40.5 -100z" />
    <glyph glyph-name="alef" unicode="&#x5d0;" horiz-adv-x="973" 
d="M922 14q0 -14 -17 -14h-180q-30 0 -41 16l-346 496q-23 -36 -38 -168q-13 -111 -13 -203v-110q0 -31 -35 -31h-166q-23 0 -23 31v100q0 131 50 273q54 155 137 231l-197 291q-8 12 -8 18q0 14 18 14h170q32 0 43 -16l328 -471q64 100 64 387v74q0 26 34 26h168
q23 0 23 -22v-76q0 -153 -54 -291t-143 -221l219 -317q7 -9 7 -17z" />
    <glyph glyph-name="bet" unicode="&#x5d1;" horiz-adv-x="889" 
d="M858 154l-2 -4l-45 -132q-6 -18 -25 -18h-718q-21 0 -21 12q0 4 2 11l41 127q5 16 29 16h432q-21 33 -21 127v416q0 112 -118 112q-131 0 -279 -59q-5 -2 -8 -2q-14 0 -19 12l-53 156q-2 6 -2 8q0 12 12 14q140 23 388 23q162 0 230.5 -60.5t68.5 -197.5v-453
q0 -96 51 -96h37q20 0 20 -12z" />
    <glyph glyph-name="gimel" unicode="&#x5d2;" horiz-adv-x="737" 
d="M686 20q-10 -20 -20 -20h-179q-20 0 -22 25l-37 362h-31q-73 0 -88 -76l-55 -288q-4 -23 -25 -23h-182q-16 0 -16 14v4l63 293q45 205 273 205h57v197q0 102 -105 102q-88 0 -180 -37q-5 -2 -12 -2q-11 0 -14 10l-47 134q-5 11 -5 12q0 15 19 18q109 21 268 21
q295 0 295 -244v-264q0 -31 8 -109z" />
    <glyph glyph-name="dalet" unicode="&#x5d3;" horiz-adv-x="923" 
d="M856 934l-33 -125q-5 -18 -26 -18h-84v-775q0 -16 -21 -16h-180q-18 0 -18 16v775h-398q-21 0 -26 16l-37 123q-2 7 -2 12q0 16 14 16h795q16 0 16 -16v-6v-2z" />
    <glyph glyph-name="he" unicode="&#x5d4;" horiz-adv-x="932" 
d="M850 16q0 -16 -19 -16h-178q-18 0 -22 18v654q0 151 -164 151q-160 0 -320 -65q-4 -2 -8 -2q-14 0 -18 12l-53 154q-2 6 -2 8q0 12 12 14q155 29 424 29q348 0 348 -293v-664zM330 16q0 -16 -21 -16h-176q-18 0 -22 18v564q0 19 20 24l174 43h2q23 0 23 -22v-611z" />
    <glyph glyph-name="vav" unicode="&#x5d5;" horiz-adv-x="404" 
d="M311 16q0 -16 -22 -16h-174q-23 0 -23 20v793q0 72 -18 123q-1 2 -2 6q0 16 18 16h164q11 0 25 -16q32 -40 32 -176v-750z" />
    <glyph glyph-name="zayin" unicode="&#x5d6;" horiz-adv-x="688" 
d="M616 948q0 5 -6 -18l-32 -123q-5 -16 -27 -16h-66q-69 0 -69 -91v-684q0 -16 -21 -16h-180q-20 0 -20 16v602q0 126 45 173h-138q-19 0 -24 18l-37 131q-1 2 -2 6q0 12 18 12h539q20 0 20 -10z" />
    <glyph glyph-name="het" unicode="&#x5d7;" horiz-adv-x="939" 
d="M856 16q0 -16 -18 -16h-179q-18 0 -22 18v678q0 138 -137 138q-98 0 -178 -39v-779q0 -16 -23 -16h-174q-19 0 -23 18v816l-41 71q-6 11 -6 17q0 18 21 22q160 35 450 35q330 0 330 -301v-662z" />
    <glyph glyph-name="tet" unicode="&#x5d8;" horiz-adv-x="975" 
d="M907 487q0 -239 -101 -372q-104 -138 -302 -138q-412 0 -412 508v328q0 72 -18 123q-1 2 -2 6q0 16 18 16h164q11 0 25 -16q32 -40 32 -176v-289q0 -348 193 -348q178 0 178 356q0 219 -35 291q-22 45 -78 45q-28 0 -54.5 -20.5t-33.5 -20.5q-14 0 -18 13l-47 127
q-2 5 -2 10q0 11 18 18q66 27 189 27q139 0 202 -82q84 -111 84 -406z" />
    <glyph glyph-name="yod" unicode="&#x5d9;" horiz-adv-x="404" 
d="M311 453q0 -17 -22 -17h-174q-23 0 -23 21v356q0 72 -18 123q-1 2 -2 6q0 16 18 16h164q11 0 25 -16q32 -40 32 -176v-313z" />
    <glyph glyph-name="kaffinal" unicode="&#x5da;" horiz-adv-x="830" 
d="M748 -362q0 -17 -19 -17h-178q-19 0 -23 19v1069q0 112 -118 112q-116 0 -299 -59q-3 -1 -9 -2q-14 0 -18 12l-53 156q-2 6 -2 8q0 12 12 14q139 23 387 23q170 0 245 -60t75 -198v-1077z" />
    <glyph glyph-name="kaf" unicode="&#x5db;" horiz-adv-x="793" 
d="M725 471q0 -242 -74 -359q-85 -132 -280 -132q-200 0 -316 51q-10 4 -10 14q0 8 4 18l49 123q6 15 17 15q8 0 18 -6q102 -60 215 -60q75 0 110 65q42 77 42 263q0 206 -40 288q-37 76 -124 76q-43 0 -111 -21t-92 -40q-10 -8 -20 -8q-13 0 -19 16l-49 133q-6 17 -6 19
q0 53 319 53q206 0 286.5 -112.5t80.5 -395.5z" />
    <glyph glyph-name="lamed" unicode="&#x5dc;" horiz-adv-x="884" 
d="M791 828q0 -197 -166 -431q-125 -177 -125 -353v-31q0 -13 -16 -13h-181q-16 0 -20 16v30q0 202 149 394q142 183 142 324v27h-513q-16 0 -20 22v486q0 16 11 16h192q16 0 16 -14v-343h503q28 0 28 -31v-99z" />
    <glyph glyph-name="memfinal" unicode="&#x5dd;" horiz-adv-x="968" 
d="M885 16q0 -16 -19 -16h-741q-19 0 -23 18v816l-41 71q-6 11 -6 17q0 18 21 22q160 35 465 35q344 0 344 -301v-662zM666 160v520q0 154 -152 154q-112 0 -192 -39v-635h344z" />
    <glyph glyph-name="mem" unicode="&#x5de;" horiz-adv-x="979" 
d="M911 483q0 -291 -85 -404q-68 -91 -222 -91q-118 0 -176 16q-16 5 -16 25q0 2 2 6l30 125q3 12 19 12q6 0 10 -2q62 -29 105 -29q108 0 108 324q0 213 -36 290q-28 58 -95 58q-50 0 -120 -26q-74 -28 -122 -68v-699q0 -20 -26 -20h-176q-17 0 -17 18v723q0 101 -35 191
q-2 5 -2 12q0 14 17 14h182q27 0 37 -49q149 56 315 56q156 0 220 -83q83 -106 83 -399z" />
    <glyph glyph-name="nunfinal" unicode="&#x5df;" horiz-adv-x="404" 
d="M311 -362q0 -17 -22 -17h-174q-23 0 -23 21v1171q0 72 -18 123q-1 2 -2 6q0 16 18 16h164q11 0 25 -16q32 -40 32 -176v-1128z" />
    <glyph glyph-name="nun" unicode="&#x5e0;" horiz-adv-x="611" 
d="M528 25q0 -25 -24 -25h-438q-25 0 -25 16q0 6 2 13l37 121q5 16 26 16h203v555q0 96 -84 96q-43 0 -92 -26q-7 -5 -14 -5q-10 0 -13 9l-43 129q-2 6 -2 12q0 12 11 16q42 19 202 19q254 0 254 -246v-700z" />
    <glyph glyph-name="samekh" unicode="&#x5e1;" horiz-adv-x="985" 
d="M918 500q0 -251 -106 -388t-306 -137q-198 0 -305 141q-103 133 -103 363v355l-37 77q-4 9 -4 17q0 15 19 20q29 8 189 19q165 12 270 12q202 0 285 -92q98 -107 98 -387zM692 500q0 207 -48 274q-40 55 -152 55q-125 0 -175 -34v-314q0 -354 189 -354q186 0 186 373z
" />
    <glyph glyph-name="ayin" unicode="&#x5e2;" horiz-adv-x="939" 
d="M846 342q0 -163 -110 -256q-101 -86 -261 -86h-434q-14 0 -14 16q0 6 2 13l39 121q5 16 24 16h193l-207 768q-1 3 -2 8q0 16 20 16h180q23 0 27 -18l189 -778q59 0 98 49t39 119v606q0 22 30 22h162q25 0 25 -22v-594z" />
    <glyph glyph-name="pefinal" unicode="&#x5e3;" horiz-adv-x="934" 
d="M852 -360q0 -19 -18 -19h-179q-18 0 -22 21v1046q0 146 -158 146q-83 0 -156 -41v-215h127q21 0 25 -15l37 -127v-4v-6q0 -12 -16 -12h-373q-21 0 -21 26v394l-41 71q-4 7 -4 17q0 16 15 20q43 12 194 24.5t254 12.5q336 0 336 -301v-1038z" />
    <glyph glyph-name="pe" unicode="&#x5e4;" horiz-adv-x="957" 
d="M885 471q0 -491 -416 -491q-249 0 -373 63q-12 6 -12 16t4 19l53 117q8 16 21 16q4 0 20 -8q132 -68 264 -68q115 0 164 74.5t49 251.5q0 219 -41 295q-40 71 -149 71q-111 0 -154 -36v-213h127q22 0 27 -17l35 -125v-4v-6q0 -12 -17 -12h-372q-19 0 -19 26v391l-39 74
q-6 12 -6 19q0 15 15 20q91 33 426 33q221 0 307 -112.5t86 -393.5z" />
    <glyph glyph-name="tsadifinal" unicode="&#x5e5;" horiz-adv-x="883" 
d="M801 872q0 -188 -109.5 -346t-275.5 -207v-679q0 -17 -23 -17h-176q-17 0 -20 19v649q0 66 -37 194l-129 453q0 20 20 20h178q16 0 23 -24l139 -485q79 49 135 184q52 126 52 239v64q0 22 24 22h182q17 0 17 -18v-68z" />
    <glyph glyph-name="tsadi" unicode="&#x5e6;" horiz-adv-x="909" 
d="M827 881q0 -295 -206 -488l194 -289q6 -9 6 -12q0 2 -6 -12l-29 -66q-11 -14 -28 -14h-701q-18 0 -18 16q0 -7 6 13l37 121q5 16 27 16h417l-495 756q-8 12 -8 20q0 16 22 16h186q27 0 41 -22l258 -404q66 104 66 371v29q0 26 35 26h174q22 0 22 -24v-53z" />
    <glyph glyph-name="qof" unicode="&#x5e7;" horiz-adv-x="971" 
d="M903 666q0 -148 -52 -314q-50 -161 -120 -254q-89 -116 -235 -116q-89 0 -125 20q-6 4 -6 12t4 21l32 102q6 17 19 17q6 0 10 -2q18 -9 37 -9q58 0 102 76q40 69 71 186q34 131 34 244q0 174 -176 174q-174 0 -369 -57q-7 -2 -12 -2q-10 0 -15 12l-53 152q-2 6 -2 10
q0 13 12 14q147 21 492 21q352 0 352 -307zM317 -360q0 -17 -22 -17h-176q-19 0 -23 19v966q0 30 17 33l176 33q28 0 28 -23v-1011z" />
    <glyph glyph-name="resh" unicode="&#x5e8;" horiz-adv-x="830" 
d="M748 16q0 -16 -19 -16h-178q-19 0 -23 18v691q0 112 -118 112q-116 0 -299 -59q-3 -1 -9 -2q-14 0 -18 12l-53 156q-2 6 -2 8q0 12 12 14q139 23 387 23q170 0 245 -60t75 -198v-699z" />
    <glyph glyph-name="shin" unicode="&#x5e9;" horiz-adv-x="1182" 
d="M1099 934l-34 -458q-19 -243 -174 -374q-140 -118 -354 -118q-201 0 -327 20q-23 4 -27 33l-122 899v4q0 18 15 18h190q27 0 29 -20l45 -398q114 49 125 229l11 170q1 19 19 19h184q17 0 16 -17l-11 -152q-22 -326 -329 -380l26 -239q52 -27 126 -27q143 0 233 87
q94 91 103 253l27 451q2 24 31 24h175q25 0 23 -24z" />
    <glyph glyph-name="tav" unicode="&#x5ea;" horiz-adv-x="1058" 
d="M975 23q0 -23 -19 -23h-178q-22 0 -22 18v678q0 133 -150 133q-81 0 -155 -18v-578q0 -247 -250 -247q-97 0 -160 22q-14 5 -10 19l32 125q3 8 11 8q3 -1 8 -2q38 -15 70 -15q77 0 77 99v542q-36 -8 -92 -20h-4q-14 0 -18 12l-49 148q-5 12 -5 16q0 11 13 12
q180 25 536 25q189 0 266 -47q99 -61 99 -230v-677z" />
    <glyph glyph-name="geresh" unicode="&#x5f3;" horiz-adv-x="393" 
d="M332 993q0 -154 -121 -282q-75 -80 -156 -95h-2q-14 0 -14 15q0 6 2 10q80 166 80 332q0 48 -25 96q-4 8 -4 14q0 12 14 19q51 22 105 22q121 0 121 -131z" />
    <glyph glyph-name="gershayim" unicode="&#x5f4;" horiz-adv-x="660" 
d="M616 1001q0 -170 -120 -309q-77 -88 -160 -104l-4 -2q-13 0 -13 18q0 6 3 10q81 184 81 365q0 55 -24 106q-6 13 -6 19q0 11 14 18q51 25 107 25q122 0 122 -146zM315 1001q0 -170 -120 -309q-77 -88 -160 -104l-4 -2q-13 0 -13 18q0 6 2 10q82 184 82 365q0 29 -14 70
t-14 55q0 12 12 18q50 25 107 25q122 0 122 -146z" />
    <glyph glyph-name="lefttoright" unicode="&#x200e;" horiz-adv-x="831" 
d="M768 918l-336 -312v221h-143v-827h-176v1004h319v225z" />
    <glyph glyph-name="righttoleft" unicode="&#x200f;" horiz-adv-x="831" 
d="M719 0h-176v827h-144v-221l-336 312l336 311v-225h320v-1004z" />
    <glyph glyph-name="hyphenminus" unicode="&#x2010;" horiz-adv-x="680" 
d="M592 656l-47 -144h-457l51 158z" />
    <glyph glyph-name="endash" unicode="&#x2013;" horiz-adv-x="840" 
d="M758 426q0 -23 -23 -23h-631q-22 0 -22 23v117q0 22 22 22h631q23 0 23 -22v-117z" />
    <glyph glyph-name="quotedash" unicode="&#x2015;" horiz-adv-x="2048" 
d="M2067 453h-2085v74h2085v-74z" />
    <glyph glyph-name="quoteleft" unicode="&#x2018;" horiz-adv-x="393" 
d="M332 993q0 -154 -121 -282q-75 -80 -156 -95h-2q-14 0 -14 15q0 6 2 10q80 166 80 332q0 48 -25 96q-4 8 -4 14q0 12 14 19q51 22 105 22q121 0 121 -131z" />
    <glyph glyph-name="quoteright" unicode="&#x2019;" horiz-adv-x="393" 
d="M332 993q0 -154 -121 -282q-75 -80 -156 -95h-2q-14 0 -14 15q0 6 2 10q80 166 80 332q0 48 -25 96q-4 8 -4 14q0 12 14 19q51 22 105 22q121 0 121 -131z" />
    <glyph glyph-name="quotesinglbase" unicode="&#x201a;" horiz-adv-x="310" 
d="M248 55q0 -104 -66 -203q-69 -103 -159 -124h-3q-12 0 -12 14q1 5 2 8q60 119 60 299q0 62 -9 103q-1 2 -2 8q0 22 41 22h4q144 0 144 -127z" />
    <glyph glyph-name="quotedblleft" unicode="&#x201c;" horiz-adv-x="660" 
d="M616 1001q0 -170 -120 -309q-77 -88 -160 -104l-4 -2q-13 0 -13 18q0 6 3 10q81 184 81 365q0 55 -24 106q-6 13 -6 19q0 11 14 18q51 25 107 25q122 0 122 -146zM315 1001q0 -170 -120 -309q-77 -88 -160 -104l-4 -2q-13 0 -13 18q0 6 2 10q82 184 82 365q0 29 -14 70
t-14 55q0 12 12 18q50 25 107 25q122 0 122 -146z" />
    <glyph glyph-name="quotedblright" unicode="&#x201d;" horiz-adv-x="660" 
d="M616 1001q0 -170 -120 -309q-77 -88 -160 -104l-4 -2q-13 0 -13 18q0 6 3 10q81 184 81 365q0 55 -24 106q-6 13 -6 19q0 11 14 18q51 25 107 25q122 0 122 -146zM315 1001q0 -170 -120 -309q-77 -88 -160 -104l-4 -2q-13 0 -13 18q0 6 2 10q82 184 82 365q0 29 -14 70
t-14 55q0 12 12 18q50 25 107 25q122 0 122 -146z" />
    <glyph glyph-name="quotedblbase" unicode="&#x201e;" horiz-adv-x="909" 
d="M851 -2q0 -114 -76 -199q-69 -78 -183 -115v42q164 85 164 205q0 62 -32 62q-13 0 -37.5 -8t-37.5 -8q-42 0 -72 31.5t-30 73.5q0 51 38 84.5t90 33.5q77 0 128 -64q48 -59 48 -138zM372 -1q0 -114 -74 -200q-70 -82 -183 -115v42q80 45 115 83q49 54 49 128q0 56 -34 56
q-13 0 -38 -8t-38 -8q-43 0 -72.5 30t-29.5 73q0 52 41 87q38 33 91 33q76 0 126 -64q47 -59 47 -137z" />
    <glyph glyph-name="bullet" unicode="&#x2022;" horiz-adv-x="717" 
d="M614 677q0 -112 -69.5 -181.5t-181.5 -69.5t-181.5 69.5t-69.5 181.5t69.5 181.5t181.5 69.5t181.5 -69.5t69.5 -181.5z" />
    <glyph glyph-name="ellipsis" unicode="&#x2026;" horiz-adv-x="1258" 
d="M1122 91l-118 -129l-118 129l118 117zM730 91l-118 -129l-118 129l118 117zM338 91l-119 -129l-117 129l117 117z" />
    <glyph glyph-name="perthousand" unicode="&#x2030;" horiz-adv-x="2048" 
d="M1981 320q0 -239 -143 -330q-71 -45 -145 -45q-167 0 -248 172q-39 83 -39 184q0 246 149 331q72 41 136 41q79 0 150 -49q68 -46 102 -120q38 -82 38 -184zM643 1021q0 -144 -69 -245q-80 -117 -217 -117q-171 0 -252 172q-40 85 -40 191q0 229 146 322q67 43 142 43
q173 0 252 -176q38 -85 38 -190zM1220 1387l-972 -1442h-89l972 1442h89zM1316 312q0 -227 -148 -322q-70 -45 -142 -45q-135 0 -216 118q-72 104 -72 245q0 230 151 322q70 43 140 43q168 0 248 -175q39 -85 39 -186zM1821 329q0 291 -130 291q-125 0 -125 -316
q0 -304 129 -304q73 0 107 114q19 64 19 215zM483 1030q0 304 -134 304q-123 0 -123 -317q0 -308 129 -308q128 0 128 321zM1155 303q0 317 -130 317q-74 0 -108 -110q-19 -62 -19 -210q0 -300 126 -300q131 0 131 303z" />
    <glyph glyph-name="guilsinglleft" unicode="&#x2039;" horiz-adv-x="682" 
d="M563 -8h-57l-387 472l387 470h57l-244 -470z" />
    <glyph glyph-name="guilsinglright" unicode="&#x203a;" horiz-adv-x="682" 
d="M567 462l-394 -470h-58l243 470l-243 472h58z" />
    <glyph glyph-name="newsheqel" unicode="&#x20aa;" horiz-adv-x="1275" 
d="M1149 336q0 -177 -64 -252q-70 -84 -245 -84h-340q-76 0 -76 86v418q0 14 12 14h107q12 0 12 -14v-352q0 -29 29 -29h250q117 0 154 53q28 41 28 158v475q0 12 12 12h102q19 0 19 -12v-473zM852 322q0 -13 -16 -13h-105q-10 0 -10 13v178q0 105 -40 149q-45 51 -163 51
h-227q-31 0 -31 -28v-658q0 -14 -14 -14h-107q-12 0 -12 14v723q0 86 76 86h342q158 0 231 -73q76 -76 76 -242v-186z" />
    <glyph glyph-name="trademark" unicode="&#x2122;" horiz-adv-x="2007" 
d="M1973 549h-398v36q44 1 63 6q34 9 47 38q9 20 9 86v492l-307 -658h-32l-308 649v-482q0 -99 36 -120q19 -11 57 -11h36v-36h-306v36q86 0 104 41q9 21 9 90v466q0 108 -37 127q-19 10 -76 10v37h286l273 -572l265 572h279v-37q-41 -1 -60 -6q-30 -8 -42 -37
q-9 -22 -9 -92v-468q0 -80 16 -101q20 -26 95 -30v-36zM801 1155h-34q-20 141 -194 141h-75v-579q0 -76 16 -100q20 -29 90 -32v-36h-374v36q68 6 86 34q14 22 14 97v580h-76q-87 0 -128 -27q-46 -31 -62 -114h-34l21 201h728z" />
    <glyph glyph-name="delete" unicode="&#x2421;" horiz-adv-x="1229" 
d="M1188 59h-293v469h62v-414h231v-55zM835 59h-350v469h339v-56h-277v-143h260v-55h-260v-160h288v-55zM429 296q0 -194 -143 -229q-33 -8 -76 -8h-169v469h162q53 0 83 -7q143 -33 143 -225zM365 297q0 134 -83 166q-23 9 -80 9h-99v-358h100q82 0 115 33q47 47 47 150z
" />
    <glyph glyph-name="glyph143" horiz-adv-x="369" 
 />
    <glyph glyph-name="glyph144" horiz-adv-x="369" 
 />
    <glyph glyph-name="glyph143" horiz-adv-x="453" 
 />
    <glyph glyph-name="glyph144" horiz-adv-x="453" 
 />
    <glyph glyph-name="ch269" horiz-adv-x="453" 
 />
    <glyph glyph-name="ch270" horiz-adv-x="453" 
 />
    <glyph glyph-name="glyph142" horiz-adv-x="453" 
 />
    <glyph glyph-name="ch272" horiz-adv-x="453" 
 />
    <glyph glyph-name="glyph4" horiz-adv-x="453" 
 />
    <glyph glyph-name="glyph5" horiz-adv-x="453" 
 />
    <glyph glyph-name="ch332" horiz-adv-x="369" 
 />
    <glyph glyph-name="ch333" horiz-adv-x="369" 
 />
    <glyph glyph-name="ch334" horiz-adv-x="377" 
 />
    <glyph glyph-name="ch335" horiz-adv-x="377" 
 />
  </font>
</defs>
</svg>
